<?xml version="1.0" standalone="no"?>
<!DOCTYPE svg PUBLIC "-//W3C//DTD SVG 20010904//EN"
 "http://www.w3.org/TR/2001/REC-SVG-20010904/DTD/svg10.dtd">
<svg version="1.0" xmlns="http://www.w3.org/2000/svg"
 width="768.000000pt" height="768.000000pt" viewBox="0 0 768.000000 768.000000"
 preserveAspectRatio="xMidYMid meet">
<metadata>
Created by potrace 1.14, written by Peter Selinger 2001-2017
</metadata>
<g transform="translate(0.000000,768.000000) scale(0.100000,-0.100000)"
fill="#000000" stroke="none">
<path d="M3750 7616 c-25 -12 -133 -72 -240 -133 -107 -60 -220 -124 -250
-140 -30 -17 -219 -124 -419 -237 -200 -113 -367 -206 -371 -206 -4 0 -13 -7
-20 -15 -7 -8 -16 -12 -21 -9 -5 3 -9 0 -9 -5 0 -6 -4 -11 -10 -11 -5 0 -31
-13 -57 -28 -81 -49 -148 -86 -153 -87 -3 0 -16 -8 -30 -17 -48 -30 -172 -98
-181 -98 -5 0 -9 -4 -9 -10 0 -5 -5 -10 -10 -10 -6 0 -70 -34 -141 -75 -72
-41 -135 -75 -139 -75 -5 0 -10 -3 -12 -7 -1 -5 -21 -17 -43 -28 -22 -10 -62
-33 -90 -50 -27 -16 -63 -37 -80 -45 -16 -8 -32 -17 -35 -20 -3 -3 -21 -14
-40 -24 -138 -75 -165 -90 -168 -98 -2 -4 -8 -8 -14 -8 -6 0 -61 -29 -122 -64
-62 -35 -127 -73 -146 -83 -89 -50 -148 -82 -180 -99 -19 -11 -37 -21 -40 -24
-3 -3 -26 -16 -51 -30 -119 -64 -150 -114 -149 -240 1 -60 0 -83 -1 -102 -1
-25 -1 -393 1 -418 1 -14 1 -31 1 -37 -1 -7 -1 -19 -2 -25 -1 -16 0 -362 1
-483 1 -49 1 -97 1 -105 0 -8 0 -73 0 -145 0 -71 1 -141 0 -155 -2 -182 -3
-464 -1 -490 1 -14 1 -31 1 -37 -1 -7 -1 -19 -2 -25 -1 -25 -1 -393 1 -418 1
-14 1 -31 1 -37 -1 -7 -1 -19 -2 -25 -1 -16 0 -362 1 -483 1 -49 1 -97 1 -105
0 -8 0 -73 0 -145 1 -140 1 -162 -3 -273 -2 -39 -1 -72 2 -72 3 0 7 -10 7 -22
3 -32 23 -69 56 -100 24 -22 210 -136 437 -267 30 -18 62 -36 70 -41 31 -20
366 -216 380 -223 8 -4 27 -15 42 -25 15 -9 82 -49 150 -89 68 -39 140 -83
161 -97 20 -14 37 -23 37 -19 0 3 8 -1 18 -9 14 -12 77 -50 204 -123 10 -5 64
-37 120 -71 57 -33 114 -67 128 -75 14 -8 27 -16 30 -19 3 -3 19 -13 35 -21
17 -8 55 -30 85 -49 30 -19 57 -35 60 -35 3 0 23 -12 45 -26 22 -14 47 -29 55
-32 8 -4 47 -27 85 -51 39 -25 90 -55 115 -67 25 -12 47 -26 50 -30 3 -4 24
-17 48 -30 24 -13 51 -29 60 -34 20 -12 158 -93 352 -208 74 -43 146 -86 160
-95 14 -9 27 -17 30 -17 3 0 39 -22 81 -48 42 -26 81 -47 87 -47 7 0 12 -3 12
-8 0 -14 66 -37 114 -38 56 -2 73 4 166 57 264 150 446 251 510 285 19 11 37
22 40 25 3 3 19 12 35 21 17 8 47 24 67 36 21 12 115 65 210 118 95 53 186
105 201 116 16 11 36 21 44 22 8 1 18 7 21 12 4 5 31 21 60 36 28 16 76 40
105 55 28 16 56 34 60 41 4 6 17 12 27 12 10 0 22 5 25 10 4 6 32 24 63 40 31
16 80 43 107 59 28 17 64 37 80 45 17 8 53 29 80 45 28 17 66 38 85 48 19 9
37 20 40 23 3 4 20 13 38 21 17 8 32 17 32 21 0 5 4 8 10 8 5 0 94 48 197 106
103 58 217 122 253 142 36 19 72 41 81 48 8 8 19 14 22 14 4 0 25 11 47 25 22
14 46 25 54 25 8 0 16 4 18 8 2 4 23 19 48 33 25 14 54 30 65 37 179 102 267
152 270 152 20 0 108 68 130 100 30 43 35 81 34 280 0 99 1 116 2 133 1 11 1
126 -2 412 0 72 -1 141 0 155 2 160 3 464 1 490 -1 14 -1 31 -1 38 1 6 1 18 2
25 1 24 1 392 -1 417 -1 14 -1 31 -1 38 1 6 1 18 2 25 1 15 0 361 -1 482 -1
50 -1 97 -1 105 0 8 0 74 0 145 0 72 0 144 0 160 0 17 0 89 0 160 0 72 0 144
0 160 0 17 0 89 0 160 -1 140 -1 162 3 273 2 39 1 72 -2 72 -3 0 -7 10 -7 22
-3 30 -23 68 -49 93 -31 29 -64 55 -69 55 -2 0 -72 40 -155 90 -83 49 -178
105 -213 125 -34 20 -69 40 -77 45 -34 22 -366 217 -380 223 -8 4 -27 15 -42
25 -15 9 -80 48 -144 85 -64 38 -135 80 -158 95 -22 14 -43 27 -46 27 -3 0
-16 8 -30 16 -76 48 -182 109 -190 109 -6 0 -10 3 -10 8 0 4 -23 18 -50 31
-28 14 -50 29 -50 33 0 4 -5 8 -10 8 -6 0 -41 19 -78 41 -37 23 -88 54 -114
68 -26 14 -118 68 -205 120 -87 52 -168 99 -180 105 -13 6 -23 14 -23 19 0 4
-5 7 -11 7 -9 0 -106 55 -229 130 -8 5 -78 46 -155 91 -77 45 -141 85 -143 90
-2 5 -12 9 -23 9 -10 0 -19 4 -19 9 0 5 -8 11 -17 15 -10 3 -27 11 -38 18 -49
32 -126 78 -130 78 -3 0 -28 15 -57 33 -117 75 -152 90 -208 93 -40 1 -67 -4
-100 -20z"/>
</g>
</svg>
